<?xml version="1.0" standalone="no"?>
<!DOCTYPE svg PUBLIC "-//W3C//DTD SVG 20010904//EN"
 "http://www.w3.org/TR/2001/REC-SVG-20010904/DTD/svg10.dtd">
<svg version="1.0" xmlns="http://www.w3.org/2000/svg"
 width="800.000000pt" height="800.000000pt" viewBox="0 0 800.000000 800.000000"
 preserveAspectRatio="xMidYMid meet">

<g transform="translate(0.000000,800.000000) scale(0.100000,-0.100000)"
fill="#000000" stroke="none">
<path d="M7505 7770 c-18 -8 -17 -9 8 -9 46 -1 138 -51 186 -100 144 -148 163
-441 44 -681 -49 -99 -156 -208 -231 -235 -28 -10 -48 -23 -45 -28 3 -5 0 -7
-8 -5 -8 3 -29 -1 -47 -8 -18 -7 -48 -12 -66 -10 -43 3 -38 -15 12 -38 22 -11
68 -20 115 -22 44 -2 82 -6 87 -9 15 -9 119 25 178 59 81 48 173 151 222 249
33 66 40 89 39 136 -1 55 -1 55 -11 21 -13 -45 -65 -168 -78 -183 -6 -7 -24
-30 -41 -52 -17 -22 -35 -39 -40 -38 -5 2 -9 -3 -9 -11 0 -7 -8 -16 -17 -19
-10 -4 -34 -18 -53 -34 l-35 -27 30 33 c17 19 45 49 63 68 21 21 31 40 28 49
-4 10 1 18 13 21 18 5 90 142 91 173 1 8 7 32 14 52 11 31 11 38 0 42 -19 7
-18 26 1 26 12 0 14 15 11 93 -6 135 -15 177 -37 177 -16 0 -17 -5 -11 -32 15
-67 7 -270 -12 -328 -22 -68 -68 -171 -73 -166 -3 2 7 28 20 58 13 29 32 85
41 125 17 77 22 248 7 285 -5 13 -15 43 -22 68 -11 36 -55 124 -77 150 -2 3
-10 -4 -18 -14 -11 -16 -14 -17 -14 -4 0 9 6 18 13 21 19 7 -29 48 -92 79 -34
17 -48 27 -35 28 36 0 123 -50 162 -96 22 -24 52 -70 68 -103 22 -47 31 -58
41 -49 16 13 17 32 1 22 -6 -4 -8 -3 -5 4 9 14 -30 86 -70 130 -18 20 -33 39
-33 44 0 4 -7 5 -15 2 -9 -4 -15 0 -15 9 0 8 -25 26 -57 40 -38 17 -48 25 -28
21 25 -4 27 -3 13 6 -26 16 -123 26 -114 12 5 -8 0 -12 -13 -12 -11 0 -23 5
-26 10 -7 12 -32 12 -60 0z m325 -248 c0 -8 7 -24 17 -34 10 -11 12 -18 4 -18
-8 0 -9 -5 -1 -19 15 -29 12 -38 -5 -15 -8 10 -15 25 -15 32 0 7 -9 32 -20 54
-11 23 -20 47 -20 52 1 17 40 -34 40 -52z m-134 -817 c-11 -8 -25 -15 -30 -15
-6 1 0 7 14 15 32 19 40 18 16 0z"/>
<path d="M7120 7730 c8 -5 20 -10 25 -10 6 0 3 5 -5 10 -8 5 -19 10 -25 10 -5
0 -3 -5 5 -10z"/>
<path d="M7206 7698 c16 -18 33 -37 37 -43 5 -6 7 -2 5 10 -1 11 -16 30 -32
43 -41 31 -45 28 -10 -10z"/>
<path d="M7815 7720 c3 -5 8 -10 11 -10 2 0 4 5 4 10 0 6 -5 10 -11 10 -5 0
-7 -4 -4 -10z"/>
<path d="M6947 7708 c-108 -22 -212 -127 -275 -275 -29 -68 -28 -77 6 -69 l27
7 -25 -21 c-14 -11 -31 -20 -37 -20 -14 0 -45 -54 -36 -63 3 -4 14 -2 24 4 10
5 30 7 45 3 26 -7 26 -7 -9 -19 -46 -16 -174 -108 -158 -113 7 -2 18 1 24 7 6
6 29 11 50 11 34 0 38 -2 27 -15 -20 -25 -7 -26 48 -5 57 22 102 26 102 10 0
-6 -22 -24 -50 -41 -27 -17 -50 -36 -50 -42 0 -18 -52 -117 -62 -117 -4 0 -8
-4 -8 -10 0 -5 -19 -40 -42 -78 -77 -122 -64 -122 80 1 59 50 123 104 142 118
34 26 34 27 18 46 -10 11 -18 25 -18 31 0 19 47 44 108 57 81 17 250 63 262
70 6 3 10 4 10 2 0 -2 -39 -28 -87 -58 -55 -34 -82 -55 -71 -57 9 -2 27 2 40
8 22 11 22 11 3 -5 -11 -9 -86 -50 -167 -92 -90 -46 -174 -97 -215 -132 -109
-90 -145 -117 -192 -141 -33 -16 -41 -24 -30 -31 11 -7 11 -9 1 -9 -25 0 -143
-134 -168 -190 -14 -30 -28 -57 -32 -60 -4 -3 -14 -18 -22 -35 -8 -16 -43 -79
-77 -140 -56 -98 -74 -145 -57 -145 11 0 43 45 66 90 12 25 24 47 28 50 3 3
19 23 36 45 24 30 29 44 21 56 -7 11 -2 28 22 65 32 51 44 54 14 3 -18 -31
-12 -49 10 -31 20 17 26 5 17 -29 -15 -51 11 -46 65 14 29 31 55 57 59 57 9 0
7 -60 -4 -100 l-9 -35 20 25 c11 14 28 34 37 45 9 11 37 47 62 80 24 33 69 89
99 125 92 109 91 107 30 72 -72 -41 -89 -41 -89 -1 0 17 4 28 10 24 6 -3 15
-3 21 1 7 4 -2 13 -20 21 -17 9 -31 19 -31 24 0 12 27 12 32 0 2 -4 14 -12 28
-16 21 -7 23 -6 12 7 -10 13 -5 16 41 21 38 4 88 22 166 62 62 31 115 54 118
52 6 -6 -81 -64 -122 -81 -18 -8 -36 -24 -40 -35 -3 -12 -12 -21 -20 -21 -8 0
-11 -7 -8 -20 3 -13 0 -20 -9 -20 -7 0 -14 -10 -15 -22 -2 -21 19 -4 153 130
l34 34 57 -22 c34 -13 92 -23 143 -27 47 -2 100 -12 118 -20 34 -15 68 -11 57
7 -10 16 11 12 25 -5 16 -20 50 -19 50 1 0 8 -4 13 -9 9 -5 -3 -12 -1 -16 5
-4 6 6 10 24 10 22 0 42 13 83 55 75 78 78 81 84 115 7 32 -9 42 -20 14 -4 -9
-9 -15 -11 -12 -6 5 17 75 41 126 22 47 54 223 53 290 -3 116 -17 118 -17 2
-1 -129 -9 -178 -53 -290 -31 -82 -75 -150 -118 -187 -96 -80 -126 -102 -130
-97 -3 2 5 11 17 20 31 22 102 124 161 235 59 111 73 181 60 299 -16 133 -26
146 -27 32 -1 -112 -4 -133 -34 -236 -20 -66 -78 -177 -116 -221 -70 -83 -217
-161 -258 -137 -18 11 -18 11 4 12 12 0 22 5 22 10 0 6 6 10 13 10 8 0 39 18
70 40 46 33 64 56 106 133 56 103 84 191 33 100 -36 -64 -92 -136 -100 -129
-3 3 7 28 21 55 34 62 35 77 1 28 -38 -57 -40 -38 -3 34 38 76 65 170 74 261
7 64 -1 166 -12 155 -2 -3 -6 -52 -7 -109 -2 -111 -26 -210 -73 -303 -28 -54
-84 -128 -91 -120 -3 3 2 13 11 23 25 27 59 111 51 124 -5 7 -3 8 6 3 10 -6
12 -4 7 8 -3 8 3 57 13 109 27 126 26 246 0 298 -11 22 -20 48 -20 58 0 27
-65 109 -103 129 -43 22 -103 31 -150 21z m-216 -692 c12 -13 12 -26 0 -26 -5
0 -12 8 -14 18 -3 10 -5 5 -6 -11 0 -16 -13 -41 -28 -58 -32 -34 -56 -40 -26
-6 11 12 29 46 39 76 12 34 20 47 22 35 2 -10 8 -23 13 -28z m39 -6 c0 -10 -6
-22 -13 -28 -10 -8 -12 -2 -12 28 0 30 2 36 12 28 7 -6 13 -18 13 -28z m228
-21 c-24 -14 -22 -27 5 -32 20 -3 18 -5 -13 -19 -19 -9 -51 -19 -70 -23 -34
-7 -34 -7 -18 16 15 24 83 69 103 69 6 -1 2 -5 -7 -11z m-111 -37 c-10 -10
-17 -24 -17 -30 0 -7 -7 -12 -15 -12 -22 0 -18 19 8 41 28 24 45 25 24 1z
m-57 -36 c0 -3 -4 -8 -10 -11 -5 -3 -10 -1 -10 4 0 6 5 11 10 11 6 0 10 -2 10
-4z m123 -32 c-31 -29 -98 -63 -126 -64 -9 0 -25 -4 -35 -10 -18 -10 -176 -60
-189 -60 -34 0 156 85 223 100 24 6 59 21 80 35 20 14 45 25 56 25 16 0 15 -4
-9 -26z m-223 2 c0 -2 -8 -10 -17 -17 -16 -13 -17 -12 -4 4 13 16 21 21 21 13z
m334 -11 c-3 -8 -16 -17 -27 -21 -12 -3 -31 -14 -42 -24 -11 -9 -27 -21 -35
-26 -13 -7 -12 -4 1 16 14 22 82 68 101 70 4 0 5 -7 2 -15z"/>
<path d="M7411 7698 c13 -11 39 -35 58 -52 23 -21 32 -25 28 -13 -6 15 -4 16
14 6 19 -10 20 -9 9 10 -6 11 -34 32 -64 46 -65 31 -77 32 -45 3z"/>
<path d="M7840 7718 c0 -2 21 -26 46 -53 38 -42 104 -156 104 -180 0 -5 -9 0
-20 10 -20 18 -21 18 -13 -1 9 -25 29 -45 37 -37 3 4 6 23 6 43 0 40 -40 112
-93 168 -28 30 -67 58 -67 50z"/>
<path d="M1540 7559 c0 -5 5 -7 10 -4 6 3 10 8 10 11 0 2 -4 4 -10 4 -5 0 -10
-5 -10 -11z"/>
<path d="M6115 7309 c-4 -6 -5 -12 -2 -15 2 -3 7 2 10 11 7 17 1 20 -8 4z"/>
<path d="M654 7295 c-6 -16 2 -35 16 -35 5 0 7 7 3 16 -3 9 0 20 8 25 11 7 10
9 -4 9 -10 0 -20 -7 -23 -15z"/>
<path d="M6194 7300 c9 -22 -6 -38 -39 -43 l-30 -4 32 -2 c37 -1 64 32 43 53
-8 8 -10 7 -6 -4z"/>
<path d="M7991 7264 c0 -11 3 -14 6 -6 3 7 2 16 -1 19 -3 4 -6 -2 -5 -13z"/>
<path d="M708 7253 c-36 -9 -30 -64 7 -62 6 0 4 3 -2 6 -18 7 -16 23 4 45 9
10 14 17 12 17 -2 -1 -12 -3 -21 -6z"/>
<path d="M7980 7170 c0 -5 5 -10 11 -10 5 0 7 5 4 10 -3 6 -8 10 -11 10 -2 0
-4 -4 -4 -10z"/>
<path d="M6433 7093 c-21 -8 -15 -22 7 -16 11 3 20 9 20 14 0 10 -8 10 -27 2z"/>
<path d="M6384 7048 l-19 -23 23 19 c12 11 22 21 22 23 0 8 -8 2 -26 -19z"/>
<path d="M6309 6973 c-68 -73 -98 -110 -74 -93 30 22 134 140 123 140 -2 0
-24 -21 -49 -47z"/>
<path d="M6330 6892 c-87 -89 -104 -112 -105 -139 -1 -39 7 -34 20 15 7 23 18
38 29 40 13 3 16 0 11 -9 -5 -8 -4 -10 3 -5 7 4 12 13 12 20 0 7 22 37 50 67
27 30 52 62 55 72 4 9 10 17 15 17 4 0 10 7 14 15 3 8 4 15 3 15 -1 0 -49 -49
-107 -108z"/>
<path d="M748 6960 c-74 -13 -137 -77 -122 -124 12 -39 25 -48 40 -29 9 12 16
14 21 7 5 -6 17 -16 28 -22 11 -5 20 -20 20 -32 0 -17 11 -26 50 -41 52 -20
80 -25 56 -10 -25 16 8 24 99 25 71 1 92 -2 107 -16 24 -22 33 -23 33 -3 0 26
-46 46 -122 51 -163 11 -243 51 -222 113 5 15 24 33 45 44 32 15 40 16 82 3
26 -8 68 -30 94 -49 26 -19 104 -62 172 -96 69 -35 143 -77 165 -95 36 -29 52
-34 141 -44 117 -14 155 -15 155 -4 0 10 -137 32 -197 32 -23 0 -45 5 -48 10
-3 6 -1 10 4 10 24 0 9 17 -26 29 -110 38 -331 150 -370 187 -21 20 -96 52
-133 56 -19 3 -52 2 -72 -2z"/>
<path d="M6170 6827 c-20 -17 -70 -77 -112 -132 -42 -55 -95 -120 -118 -143
l-42 -44 34 7 c59 13 127 44 158 72 29 26 31 30 24 79 -7 59 6 92 63 155 43
47 40 50 -7 6z"/>
<path d="M690 6770 c0 -6 7 -10 15 -10 8 0 15 2 15 4 0 2 -7 6 -15 10 -8 3
-15 1 -15 -4z"/>
<path d="M1905 6730 c-55 -27 -97 -49 -92 -50 4 0 49 18 101 40 69 30 107 40
146 40 59 0 67 -6 175 -142 33 -41 80 -90 104 -109 104 -81 96 -68 93 -160 -2
-76 0 -86 25 -123 16 -22 51 -57 78 -79 71 -56 344 -235 448 -293 75 -42 99
-65 102 -96 1 -14 15 -19 35 -13 l22 7 -21 15 c-12 8 -19 18 -16 23 3 5 -52
43 -122 85 -278 165 -453 283 -496 335 -36 42 -39 59 -24 121 17 64 8 99 -32
129 -123 94 -136 107 -172 179 -61 119 -91 141 -191 141 -56 0 -75 -6 -163
-50z"/>
<path d="M6257 6735 c-9 -20 -22 -33 -27 -30 -6 3 -10 -1 -10 -9 0 -9 3 -16 8
-16 12 0 54 68 50 80 -2 7 -11 -5 -21 -25z"/>
<path d="M5484 6745 c-3 -8 -4 -20 -2 -27 3 -7 7 -1 10 15 6 29 1 36 -8 12z"/>
<path d="M6281 6698 c-24 -22 -35 -38 -25 -33 11 4 33 11 49 15 17 4 41 12 55
18 l25 11 -25 1 c-24 1 -24 1 -6 15 19 14 19 15 -5 15 -16 0 -41 -16 -68 -42z"/>
<path d="M6160 6696 c-5 -15 -10 -44 -10 -64 l1 -37 24 27 c17 20 22 35 19 55
-8 42 -22 50 -34 19z"/>
<path d="M6684 6695 c-16 -12 -16 -14 -3 -15 9 0 22 7 29 15 16 19 0 19 -26 0z"/>
<path d="M970 6680 c20 -13 33 -13 25 0 -3 6 -14 10 -23 10 -15 0 -15 -2 -2
-10z"/>
<path d="M1112 6655 c2 -22 7 -46 12 -53 5 -9 -3 -12 -28 -12 -20 0 -36 -2
-36 -5 0 -9 431 -668 465 -710 14 -18 14 -17 0 13 -19 39 -63 108 -250 392
-135 205 -165 253 -165 264 0 2 34 4 75 4 41 0 75 -4 75 -9 0 -11 77 -12 84 0
3 4 -14 14 -37 20 -65 20 -136 62 -169 101 l-29 35 3 -40z"/>
<path d="M1725 6665 c-27 -7 -64 -14 -82 -14 -29 -1 -52 -16 -40 -27 7 -7 197
42 197 51 0 7 -18 4 -75 -10z"/>
<path d="M7733 6650 c-65 -36 -156 -63 -194 -58 -44 7 -35 -8 24 -37 46 -23
48 -26 17 -20 -24 5 -32 4 -25 -3 11 -12 372 -194 418 -211 l27 -11 0 165 0
165 -39 0 c-22 0 -41 4 -43 9 -3 11 -81 15 -118 7 -14 -4 -19 -4 -12 0 13 6
17 24 5 23 -5 0 -31 -13 -60 -29z m-91 -106 c21 -15 38 -28 38 -30 0 -10 -18
-2 -44 21 -16 13 -32 22 -37 20 -4 -3 -10 -1 -14 5 -12 19 19 10 57 -16z"/>
<path d="M5823 6609 c-62 -33 -113 -64 -113 -69 0 -8 201 101 225 122 18 16
-1 7 -112 -53z"/>
<path d="M995 6635 c42 -26 65 -31 65 -16 0 8 -81 41 -99 41 -3 0 12 -11 34
-25z"/>
<path d="M6600 6639 c0 -5 5 -7 10 -4 6 3 10 8 10 11 0 2 -4 4 -10 4 -5 0 -10
-5 -10 -11z"/>
<path d="M1972 6630 c-38 -9 -54 -20 -29 -20 10 0 17 -4 17 -10 0 -5 25 -10
56 -10 31 0 71 -7 90 -16 52 -25 116 -103 147 -180 81 -196 286 -404 555 -563
68 -40 66 -27 -5 24 -108 77 -259 197 -337 268 -83 75 -116 129 -137 226 -9
46 -66 127 -156 225 -56 61 -114 77 -201 56z"/>
<path d="M6250 6565 c-36 -25 -71 -43 -78 -40 -7 3 -10 0 -7 -5 3 -6 -2 -10
-12 -10 -10 0 -29 -10 -43 -21 -17 -15 -19 -19 -7 -15 30 10 9 -13 -32 -33
-20 -11 -44 -28 -52 -37 -9 -11 11 -4 52 18 82 45 271 188 247 188 -2 0 -32
-20 -68 -45z"/>
<path d="M7430 6606 c0 -3 14 -11 30 -20 32 -16 42 -3 11 14 -20 10 -41 13
-41 6z"/>
<path d="M7510 6555 c7 -8 17 -15 22 -15 6 0 5 7 -2 15 -7 8 -17 15 -22 15 -6
0 -5 -7 2 -15z"/>
<path d="M1362 6548 c3 -7 13 -15 22 -16 12 -3 17 1 14 10 -3 7 -13 15 -22 16
-12 3 -17 -1 -14 -10z"/>
<path d="M6110 6530 c-9 -6 -10 -10 -3 -10 6 0 15 5 18 10 8 12 4 12 -15 0z"/>
<path d="M5659 6513 c-13 -17 -13 -17 6 -3 11 8 22 16 24 17 2 2 0 3 -6 3 -6
0 -17 -8 -24 -17z"/>
<path d="M6010 6510 c-24 -8 -24 -8 -2 -9 19 -1 21 -4 12 -21 -9 -16 -8 -18 5
-14 8 4 15 17 15 30 0 13 -1 24 -2 23 -2 -1 -14 -5 -28 -9z"/>
<path d="M5765 6500 c-3 -5 -2 -10 4 -10 5 0 13 5 16 10 3 6 2 10 -4 10 -5 0
-13 -4 -16 -10z"/>
<path d="M5948 6493 c7 -3 16 -2 19 1 4 3 -2 6 -13 5 -11 0 -14 -3 -6 -6z"/>
<path d="M5898 6483 c6 -2 18 -2 25 0 6 3 1 5 -13 5 -14 0 -19 -2 -12 -5z"/>
<path d="M1770 6460 c-8 -5 -10 -10 -5 -10 6 0 21 -3 35 -7 22 -6 24 -5 11 10
-16 20 -20 20 -41 7z"/>
<path d="M5890 6456 c-71 -17 -113 -36 -175 -80 -27 -20 -94 -66 -147 -102
-54 -36 -100 -69 -103 -75 -12 -18 26 -9 67 17 23 14 46 27 52 28 6 1 31 13
56 26 69 37 274 130 287 130 6 0 14 -6 16 -12 4 -10 8 -9 16 2 6 8 11 19 11
24 0 14 -82 -3 -135 -29 -71 -35 -67 -24 7 15 40 21 77 33 104 34 34 1 42 5
41 19 -1 20 -18 20 -97 3z"/>
<path d="M5695 6449 c-12 -19 5 -23 22 -6 16 16 16 17 1 17 -9 0 -20 -5 -23
-11z"/>
<path d="M5550 6414 c-30 -20 -85 -59 -121 -85 -37 -27 -71 -49 -76 -49 -5 0
-49 -41 -98 -92 -49 -50 -85 -86 -81 -80 18 30 -16 8 -46 -29 -18 -22 -52 -51
-74 -62 -114 -59 -134 -72 -134 -85 0 -8 -6 -12 -14 -9 -17 7 -51 -16 -51 -34
0 -7 -15 -17 -34 -24 -18 -6 -39 -19 -47 -30 -18 -24 -18 -119 -1 -133 14 -12
17 -62 5 -62 -4 1 -23 7 -41 15 -18 7 -46 17 -61 21 -33 8 -44 30 -27 56 21
33 7 30 -53 -12 -31 -22 -60 -40 -65 -40 -4 0 -23 -12 -42 -26 -19 -14 -51
-32 -71 -41 -21 -8 -38 -18 -38 -22 0 -4 -10 -18 -22 -31 l-21 -23 -9 22 c-6
17 -13 20 -32 15 -13 -3 -26 -1 -30 4 -3 5 -28 7 -57 4 -28 -3 -74 0 -102 6
-29 7 -99 21 -157 33 -58 11 -127 27 -154 35 -27 8 -51 12 -53 11 -8 -9 210
-102 277 -119 91 -23 400 -38 400 -19 0 6 -7 11 -15 11 -16 0 -19 9 -9 34 8
22 21 20 27 -4 4 -17 9 -18 37 -9 17 6 29 13 27 15 -4 4 100 114 108 114 3 0
5 -7 5 -15 0 -8 6 -24 12 -35 17 -26 3 -48 -48 -77 -29 -17 -34 -23 -19 -23
18 -1 17 -2 -5 -15 -45 -25 -10 -16 71 20 87 38 122 44 113 20 -4 -8 -11 -15
-16 -15 -6 0 -33 -12 -61 -26 -60 -30 -136 -58 -227 -84 -67 -19 -94 -20 -41
-2 41 14 40 23 -1 11 -42 -12 -71 -11 -43 1 16 7 11 9 -20 9 -23 1 -55 -8 -75
-19 -83 -48 -211 -110 -225 -110 -8 0 -15 -4 -15 -10 0 -5 -9 -10 -19 -10 -11
0 -21 -4 -23 -8 -10 -26 -231 -116 -260 -106 -13 4 -18 2 -14 -4 4 -6 -2 -8
-15 -5 -18 5 -14 9 22 23 58 23 150 75 144 81 -2 3 31 20 75 38 82 33 181 87
212 114 9 9 36 20 60 25 42 10 41 10 -30 11 -81 1 -119 -11 -172 -57 -40 -34
-38 -48 5 -26 15 8 33 13 38 11 18 -6 -57 -46 -114 -61 -30 -8 -91 -26 -137
-41 -102 -32 -128 -27 -49 10 32 15 57 29 55 31 -6 6 -101 -22 -185 -54 -108
-42 -279 -66 -404 -58 -106 7 -237 37 -279 63 -38 25 -120 102 -162 155 -31
37 -68 118 -68 147 0 10 90 19 264 25 111 4 126 2 239 -30 67 -19 126 -34 132
-34 7 0 20 10 31 21 18 20 26 21 114 16 52 -4 147 -15 210 -26 63 -11 140 -22
170 -25 30 -3 71 -8 90 -11 19 -3 4 4 -33 15 -78 23 -142 54 -154 73 -15 25
-99 65 -170 81 -81 18 -123 21 -84 5 52 -21 9 -18 -80 4 -64 17 -86 26 -69 29
14 2 -4 7 -43 12 -54 6 -72 5 -85 -7 -9 -8 -30 -22 -47 -30 l-30 -16 55 -2
c30 -1 93 -2 140 -3 74 -1 94 -5 148 -32 l62 -31 -17 26 -16 26 28 -19 c18
-12 30 -14 34 -7 4 6 12 2 20 -10 7 -12 8 -18 2 -14 -6 3 -18 -1 -27 -9 -14
-15 -11 -16 35 -16 54 0 62 10 41 51 -7 13 -7 19 -1 19 6 0 18 -14 27 -32 15
-30 15 -32 -2 -45 -12 -9 -32 -12 -54 -9 -19 3 -48 6 -63 6 -19 0 -26 4 -21
12 5 7 3 8 -6 3 -7 -4 -46 -7 -86 -6 -49 2 -82 -3 -102 -13 -35 -18 -49 -10
-25 16 9 10 31 18 52 19 l36 1 -37 10 c-32 8 -43 7 -73 -12 -32 -19 -44 -22
-98 -15 -33 3 -70 11 -80 17 -12 6 -99 10 -223 9 -193 -2 -203 -1 -213 18 -22
39 -16 41 152 42 123 1 154 3 127 11 -19 5 -94 9 -166 9 l-131 0 -42 40 c-35
34 -47 40 -69 34 -36 -9 -38 -12 -23 -36 7 -12 10 -24 6 -27 -3 -3 -51 -7
-107 -9 -56 -2 -129 -8 -162 -13 -76 -12 -156 -13 -156 -1 0 5 -28 7 -62 6
-71 -4 -110 10 -203 69 -31 21 -60 35 -62 32 -12 -12 -43 16 -67 60 -15 26
-25 48 -23 50 2 2 18 -12 36 -32 56 -59 250 -180 274 -171 7 2 -10 15 -38 28
-40 19 -60 39 -102 99 -28 41 -52 79 -52 83 -1 5 -11 23 -23 40 -12 17 -17 27
-11 24 16 -10 -114 180 -158 231 l-36 43 -17 -26 c-9 -14 -14 -30 -11 -36 4
-6 -3 -7 -19 -3 -17 4 -26 2 -26 -5 0 -7 25 -63 55 -126 30 -62 55 -116 55
-120 0 -4 18 -34 39 -67 42 -62 56 -105 33 -100 -18 3 -10 -8 58 -93 62 -76
192 -203 237 -231 15 -10 47 -34 70 -52 24 -19 43 -31 43 -27 0 5 8 2 18 -6
19 -16 92 -51 92 -44 0 2 -23 30 -50 61 -31 35 -56 75 -64 103 -14 50 -5 44
-176 125 -97 45 -180 105 -149 106 10 0 49 -14 88 -30 42 -18 89 -30 118 -31
74 -1 269 10 351 21 97 13 252 13 252 0 0 -5 -16 -10 -35 -10 -40 0 -43 -10
-16 -54 10 -17 38 -79 61 -138 34 -85 41 -113 36 -142 -9 -46 -20 -46 -38 2
-11 30 -15 34 -21 19 -4 -11 -3 -16 3 -12 6 3 10 -5 10 -19 0 -14 5 -28 10
-31 5 -3 10 -17 10 -30 0 -24 -1 -24 -37 -11 -69 24 -172 74 -210 101 -21 15
-27 18 -14 6 13 -11 18 -21 11 -21 -22 0 -79 41 -75 53 2 7 -22 30 -54 53 -56
40 -99 103 -86 124 4 6 38 8 89 4 106 -9 188 2 221 27 36 29 22 41 -28 23 -27
-10 -83 -16 -155 -17 -101 -2 -114 0 -124 16 -10 18 -10 18 -24 -1 -11 -16
-11 -27 -3 -51 6 -18 9 -41 6 -51 -9 -35 68 -136 147 -195 78 -57 190 -117
274 -146 l53 -18 22 23 c25 26 78 56 101 56 16 0 39 34 30 43 -4 3 -18 -3 -33
-13 -14 -11 -39 -22 -56 -25 l-30 -6 31 18 c67 40 75 49 69 79 -3 18 1 12 13
-16 10 -25 18 -52 18 -60 -2 -27 -58 -170 -66 -165 -9 6 -3 66 10 100 12 32 5
31 -43 -2 -39 -27 -39 -28 -33 -76 7 -48 6 -49 -16 -44 -13 3 -41 8 -63 11
-30 5 -34 4 -19 -3 12 -5 42 -12 67 -16 44 -7 46 -9 62 -58 17 -53 90 -199 80
-159 -11 38 3 24 44 -46 22 -38 48 -75 58 -83 10 -9 4 9 -17 46 -97 172 -99
182 -74 262 5 17 5 17 -9 1 -8 -10 -17 -15 -20 -11 -15 15 -5 65 26 129 l32
69 3 -52 c2 -29 -2 -61 -8 -72 -7 -13 -7 -27 -1 -38 19 -37 80 -231 85 -275
13 -97 73 -197 172 -288 277 -251 546 -401 833 -465 300 -66 659 11 952 204
102 67 207 157 196 168 -3 3 -68 -33 -144 -79 -345 -211 -753 -289 -1075 -205
-186 49 -383 146 -518 256 -25 20 -58 45 -75 56 -52 32 -136 108 -171 154 -41
53 -36 69 6 20 16 -19 29 -29 30 -23 0 6 -7 17 -15 24 -28 23 -74 98 -110 182
-31 69 -36 89 -30 126 3 24 13 46 21 49 20 7 18 58 -3 79 -17 17 -17 17 7 10
69 -22 372 -33 475 -16 32 5 6 6 -70 3 -144 -6 -365 11 -403 32 -40 21 -111
109 -99 122 3 2 -11 20 -31 38 -20 18 -34 36 -31 39 3 4 19 -6 35 -20 62 -58
230 -108 431 -129 200 -21 345 -3 625 81 83 25 152 43 155 40 6 -6 -132 -58
-242 -91 -49 -15 -144 -38 -210 -51 -96 -19 -107 -23 -55 -19 112 9 238 41
450 115 339 117 450 159 558 212 112 55 134 76 30 30 -35 -16 -125 -48 -198
-72 -74 -23 -168 -55 -208 -71 -40 -16 -78 -29 -85 -29 -32 1 157 78 328 135
178 58 355 136 391 172 11 12 18 13 27 4 6 -6 19 -11 29 -11 10 0 18 -5 18
-11 0 -5 5 -7 10 -4 6 3 10 1 10 -4 0 -6 -9 -11 -20 -11 -11 0 -20 4 -20 9 0
14 -44 21 -52 8 -4 -6 -3 -14 3 -18 15 -9 -1 -41 -18 -35 -8 3 -12 2 -9 -2 2
-4 -17 -17 -42 -29 -26 -12 -99 -46 -164 -77 -64 -30 -197 -82 -295 -115 -329
-112 -498 -172 -463 -165 67 12 780 253 852 288 88 41 201 106 323 184 66 42
90 63 91 79 1 20 62 103 98 132 26 22 -2 -59 -35 -101 -32 -40 -36 -58 -16
-58 21 0 50 38 97 125 68 125 112 186 192 260 80 75 77 76 -21 3 -140 -102
-189 -146 -217 -195 -34 -57 -42 -49 -13 14 13 26 23 53 24 60 0 7 15 27 33
46 50 52 38 57 -15 5 -47 -45 -89 -65 -95 -46 -4 10 56 136 73 153 17 17 9
-19 -11 -50 -11 -16 -20 -33 -20 -36 0 -11 206 199 252 257 26 34 65 74 85 90
21 15 54 41 73 58 19 17 46 39 60 48 14 9 23 17 20 17 -3 1 -30 -15 -60 -35z
m-504 -429 c-23 -17 -36 -19 -36 -6 0 11 18 19 40 20 11 0 10 -3 -4 -14z m208
-74 c-10 -10 -21 -16 -24 -14 -3 3 4 11 14 19 28 20 33 17 10 -5z m-134 -41
c-19 -24 -32 -53 -33 -73 -3 -38 -24 -70 -41 -64 -16 6 -46 -12 -46 -27 0 -15
-130 -76 -158 -75 -14 0 -14 2 3 9 17 7 17 9 3 9 -20 1 -44 33 -53 72 -9 36
36 86 112 126 54 28 131 54 108 36 -15 -12 -45 -81 -45 -103 0 -25 34 -26 70
-4 14 8 18 13 8 10 -35 -10 -26 10 29 65 68 67 88 76 43 19z m-80 -160 c0 -5
-5 -10 -11 -10 -5 0 -7 5 -4 10 3 6 8 10 11 10 2 0 4 -4 4 -10z m-351 -55 c27
-9 55 -23 61 -31 11 -12 7 -14 -22 -14 -45 0 -118 51 -118 82 l0 22 15 -21 c8
-12 37 -29 64 -38z m-969 -25 c0 -5 -5 -10 -11 -10 -5 0 -7 5 -4 10 3 6 8 10
11 10 2 0 4 -4 4 -10z m1264 -4 c-5 -14 -47 -36 -67 -36 -7 0 6 12 28 25 47
29 46 29 39 11z m-304 -32 c0 -2 -7 -4 -15 -4 -8 0 -15 4 -15 10 0 5 7 7 15 4
8 -4 15 -8 15 -10z m-720 -4 c8 -5 11 -10 5 -10 -5 0 -17 5 -25 10 -8 5 -10
10 -5 10 6 0 17 -5 25 -10z m899 6 c-12 -10 -60 -16 -54 -6 3 5 18 10 32 10
15 0 24 -2 22 -4z m-2230 -106 c0 -10 -3 -8 -9 5 -12 27 -12 43 0 25 5 -8 9
-22 9 -30z m45 -16 c3 -8 2 -12 -4 -9 -6 3 -10 10 -10 16 0 14 7 11 14 -7z
m1601 -74 c-27 -12 -43 -12 -25 0 8 5 22 9 30 9 10 0 8 -3 -5 -9z m-65 -14 c0
-6 -123 -47 -127 -42 -2 2 20 12 49 24 52 20 78 26 78 18z m-390 -100 c0 -2
-7 -7 -16 -10 -8 -3 -12 -2 -9 4 6 10 25 14 25 6z m-839 -80 c70 -25 132 -40
220 -51 158 -20 176 -25 69 -19 -124 7 -216 23 -288 50 -79 30 -158 70 -167
85 -4 6 10 2 31 -9 22 -11 82 -36 135 -56z m617 -42 c-67 -16 -238 -33 -238
-23 0 3 35 10 78 13 42 4 93 11 112 16 19 4 51 8 70 8 29 0 26 -2 -22 -14z
m-713 -102 c-7 -7 -45 29 -45 41 0 6 11 0 25 -13 14 -13 23 -26 20 -28z m1854
-841 c-30 -23 -88 -51 -164 -80 -33 -13 -75 -30 -92 -37 -40 -18 -179 -54
-206 -54 -31 0 -10 14 41 27 l47 12 -45 -5 c-25 -2 -79 -6 -120 -9 -66 -4 -61
-2 45 15 66 10 149 28 184 39 36 11 69 17 74 14 5 -3 19 -1 30 5 12 6 45 18
72 28 28 10 68 28 90 40 50 27 76 30 44 5z m-573 -183 c-14 -9 -134 -9 -201 1
-34 5 -9 7 81 7 73 -1 127 -4 120 -8z"/>
<path d="M5640 6410 c-18 -14 -21 -20 -9 -20 9 0 24 9 34 20 23 26 8 26 -25 0z"/>
<path d="M5869 6368 c0 -2 -2 -11 -4 -22 -4 -20 -53 -76 -67 -76 -4 0 -8 8 -9
18 0 12 -3 10 -10 -8 -6 -15 -13 -20 -17 -13 -5 8 -14 5 -31 -8 -21 -17 -23
-25 -17 -68 5 -37 2 -62 -13 -102 l-20 -52 29 28 c30 29 38 41 20 30 -26 -16
-3 15 68 90 82 87 149 175 134 175 -5 0 -21 -12 -36 -27 l-27 -27 11 28 c5 15
10 29 10 32 0 4 -19 6 -21 2z m-126 -145 c5 -26 4 -26 -9 -9 -7 10 -11 23 -8
27 8 14 11 11 17 -18z"/>
<path d="M5808 6318 c9 -9 15 -9 24 0 9 9 7 12 -12 12 -19 0 -21 -3 -12 -12z"/>
<path d="M5561 6306 c-8 -10 -9 -16 -1 -21 5 -3 13 1 16 10 9 22 -1 29 -15 11z"/>
<path d="M5443 6288 c-13 -6 -23 -15 -23 -20 0 -5 11 -1 25 8 37 24 35 30 -2
12z"/>
<path d="M6277 6178 c-54 -83 -116 -218 -99 -218 7 0 99 135 122 180 12 22 23
90 15 90 -2 0 -19 -24 -38 -52z"/>
<path d="M5352 6173 c-38 -25 -53 -44 -34 -43 8 1 90 70 82 70 -4 0 -25 -12
-48 -27z"/>
<path d="M6550 6191 c0 -6 4 -13 10 -16 6 -3 7 1 4 9 -7 18 -14 21 -14 7z"/>
<path d="M5333 6121 c-81 -53 -152 -111 -164 -133 -9 -17 -2 -14 32 13 24 19
62 47 84 62 53 35 113 86 100 86 -5 0 -29 -13 -52 -28z"/>
<path d="M5355 6089 c-33 -29 -62 -69 -51 -69 6 0 96 90 96 96 0 9 -11 2 -45
-27z"/>
<path d="M5485 6082 c-47 -32 -191 -201 -220 -258 -28 -54 -132 -234 -153
-264 -16 -24 -16 -25 3 -10 17 13 18 13 10 0 -4 -8 -22 -33 -39 -55 -16 -22
-31 -42 -33 -44 -2 -2 -6 -2 -9 2 -3 3 7 23 22 44 37 51 19 33 -50 -49 -31
-37 -56 -72 -56 -78 0 -21 21 -9 66 38 88 89 151 177 200 277 68 138 128 227
224 334 45 50 80 91 78 91 -1 -1 -21 -13 -43 -28z"/>
<path d="M5590 6078 c0 -5 7 -11 15 -14 8 -3 17 -15 21 -27 6 -20 7 -19 21 6
8 15 11 32 8 37 -7 11 -65 10 -65 -2z"/>
<path d="M6248 5928 c-39 -60 -182 -295 -248 -408 -69 -117 -254 -390 -299
-440 -23 -25 -69 -81 -104 -124 -76 -98 -246 -297 -267 -313 -8 -7 -10 -13 -5
-13 6 0 33 24 60 53 28 29 99 104 159 167 121 128 142 155 277 355 121 179
234 365 357 585 14 25 32 56 42 70 27 41 71 120 66 120 -2 0 -20 -24 -38 -52z"/>
<path d="M1821 5935 c26 -38 59 -76 59 -68 -1 4 -17 26 -37 48 -20 22 -30 31
-22 20z"/>
<path d="M5452 5925 c2 -14 12 -21 35 -23 17 -2 39 -12 48 -22 16 -18 16 -24
2 -87 -24 -103 -27 -132 -17 -138 17 -10 41 42 50 108 6 36 15 77 22 92 10 21
9 28 -2 35 -9 6 -18 3 -26 -8 -10 -14 -13 -13 -23 6 -8 15 -21 22 -41 22 -17
0 -34 7 -40 18 -10 15 -10 15 -8 -3z"/>
<path d="M4788 5903 c7 -3 16 -2 19 1 4 3 -2 6 -13 5 -11 0 -14 -3 -6 -6z"/>
<path d="M4715 5884 c-83 -30 -250 -126 -239 -137 3 -3 32 12 63 33 50 34 104
62 211 108 37 16 11 13 -35 -4z"/>
<path d="M4670 5822 c-96 -40 -157 -74 -142 -80 8 -2 28 6 45 18 16 13 67 38
111 56 45 19 74 34 66 34 -8 -1 -44 -13 -80 -28z"/>
<path d="M5961 5795 c-24 -26 -41 -38 -41 -29 0 8 -5 12 -10 9 -6 -4 -8 -11
-5 -16 4 -5 -1 -9 -9 -9 -9 0 -16 -4 -16 -10 0 -5 4 -10 10 -10 5 0 7 -7 3
-16 -3 -8 -11 -13 -18 -11 -6 3 -17 -4 -24 -15 -7 -11 -8 -17 -2 -14 15 10
-23 -49 -112 -172 -43 -59 -83 -116 -89 -127 -6 -11 -14 -22 -17 -25 -3 -3
-22 -27 -41 -55 -19 -27 -38 -51 -42 -53 -4 -2 -8 -13 -8 -24 0 -11 -21 -41
-47 -67 -26 -25 -44 -38 -40 -28 3 9 2 17 -2 17 -5 0 -11 -4 -13 -10 -6 -19
-123 -110 -141 -110 -24 0 -157 -137 -157 -162 0 -20 123 49 190 107 58 49
217 214 289 300 67 78 162 216 252 363 24 40 45 68 47 63 2 -6 -9 -31 -23 -56
-15 -25 -24 -45 -22 -45 3 0 32 46 64 102 88 156 93 178 24 103z m-196 -305
c-9 -16 -20 -30 -26 -30 -5 0 0 14 13 30 12 17 23 30 25 30 2 0 -3 -13 -12
-30z"/>
<path d="M5930 5814 c0 -8 5 -12 10 -9 6 4 8 11 5 16 -9 14 -15 11 -15 -7z"/>
<path d="M4695 5792 c-5 -4 -11 -18 -13 -31 -4 -29 60 -93 80 -80 7 5 8 9 3 9
-6 0 -23 12 -39 26 -22 21 -27 32 -22 55 6 32 6 32 -9 21z"/>
<path d="M3151 5744 c-13 -13 -22 -24 -19 -24 11 0 68 32 73 41 12 19 -31 6
-54 -17z"/>
<path d="M4605 5760 c-19 -8 -19 -9 2 -9 12 -1 25 4 28 9 7 12 -2 12 -30 0z"/>
<path d="M3038 5733 c-14 -2 -29 -11 -32 -18 -9 -25 8 -24 39 1 17 13 28 23
25 22 -3 0 -17 -3 -32 -5z"/>
<path d="M4480 5720 c-12 -8 -9 -10 12 -10 15 0 30 5 33 10 8 13 -25 13 -45 0z"/>
<path d="M3075 5710 c-3 -5 1 -10 9 -10 9 0 16 5 16 10 0 6 -4 10 -9 10 -6 0
-13 -4 -16 -10z"/>
<path d="M4428 5703 c6 -2 18 -2 25 0 6 3 1 5 -13 5 -14 0 -19 -2 -12 -5z"/>
<path d="M4280 5680 c-24 -8 -24 -8 7 -9 17 -1 35 4 38 9 7 11 -9 11 -45 0z"/>
<path d="M6320 5626 c0 -9 4 -16 10 -16 5 0 9 -10 7 -21 -1 -12 5 -24 13 -27
12 -4 13 -3 3 10 -15 17 -7 28 19 28 10 0 18 5 18 11 0 6 -8 8 -19 4 -11 -3
-26 1 -35 10 -14 15 -16 15 -16 1z"/>
<path d="M5335 5610 c-16 -17 -16 -20 -3 -15 9 4 19 13 22 21 7 19 2 18 -19
-6z"/>
<path d="M4198 5603 c7 -3 16 -2 19 1 4 3 -2 6 -13 5 -11 0 -14 -3 -6 -6z"/>
<path d="M4138 5593 c6 -2 18 -2 25 0 6 3 1 5 -13 5 -14 0 -19 -2 -12 -5z"/>
<path d="M5844 5553 c-39 -63 -105 -162 -153 -227 -28 -39 -48 -72 -45 -75 3
-3 14 5 25 19 26 32 136 200 172 263 29 49 30 67 1 20z"/>
<path d="M5240 5525 c-24 -25 -42 -47 -39 -50 3 -2 25 15 49 40 24 25 42 47
39 50 -3 2 -25 -15 -49 -40z"/>
<path d="M1795 5480 c27 -27 51 -50 54 -50 3 0 -17 23 -44 50 -27 28 -51 50
-54 50 -3 0 17 -22 44 -50z"/>
<path d="M3978 5523 c6 -2 18 -2 25 0 6 3 1 5 -13 5 -14 0 -19 -2 -12 -5z"/>
<path d="M2530 5414 c0 -8 5 -12 10 -9 6 4 8 11 5 16 -9 14 -15 11 -15 -7z"/>
<path d="M1890 5391 c69 -61 275 -189 287 -178 2 3 -34 25 -80 50 -46 24 -110
64 -142 88 -79 60 -107 78 -65 40z"/>
<path d="M6417 5314 c-8 -13 20 -41 30 -30 3 3 1 6 -5 6 -6 0 -12 8 -14 18 -2
11 -6 13 -11 6z"/>
<path d="M6166 5224 c-20 -20 -20 -27 2 -47 20 -18 67 -23 76 -8 3 4 -5 6 -17
4 -14 -3 -29 2 -36 11 -12 14 -11 19 4 36 16 17 16 20 2 20 -8 0 -23 -7 -31
-16z"/>
<path d="M2191 5205 c12 -11 212 -86 223 -82 6 2 -14 12 -44 22 -30 10 -81 28
-112 41 -55 23 -77 29 -67 19z"/>
<path d="M5480 5175 c-13 -14 -21 -27 -18 -30 2 -3 17 8 31 25 33 36 20 41
-13 5z"/>
<path d="M5469 5070 c-59 -60 -102 -110 -96 -110 11 0 129 120 177 180 17 22
30 40 28 40 -2 0 -51 -49 -109 -110z"/>
<path d="M5112 5108 c-42 -65 -96 -121 -168 -176 -60 -46 -65 -39 -14 14 39
40 27 34 -85 -46 -141 -101 -160 -116 -133 -107 12 4 15 2 11 -9 -3 -7 -10
-14 -16 -14 -5 0 -24 -11 -41 -23 -39 -30 -174 -80 -291 -108 -114 -27 -128
-34 -121 -64 7 -27 -1 -34 -80 -67 -127 -54 -354 -96 -606 -114 -54 -4 -98
-10 -98 -14 0 -5 43 -16 96 -25 125 -23 375 -16 509 14 297 66 635 228 899
431 62 47 106 87 106 96 0 3 20 36 44 73 24 38 47 79 51 92 4 13 12 29 17 36
6 8 4 11 -9 9 -10 -2 -20 -11 -21 -22 -2 -10 -8 -23 -13 -28 -5 -6 -9 -18 -9
-27 0 -22 -36 -66 -46 -56 -4 4 0 23 9 42 9 20 17 47 17 60 0 13 4 26 9 29 9
6 33 66 27 66 -2 0 -22 -28 -44 -62z m-2 -52 c0 -2 -8 -10 -17 -17 -16 -13
-17 -12 -4 4 13 16 21 21 21 13z m-60 -81 c0 -30 -159 -174 -183 -167 -5 1 -6
-2 -2 -8 4 -6 23 0 51 16 24 14 44 22 44 17 0 -12 -123 -83 -145 -83 -9 0 -52
-24 -95 -54 -58 -41 -80 -52 -89 -43 -8 8 -11 8 -11 0 0 -12 -60 -53 -76 -53
-5 1 2 10 15 21 19 15 22 22 12 28 -8 5 7 17 46 35 66 32 169 98 261 169 34
27 68 50 75 51 7 1 30 21 51 44 42 46 46 49 46 27z m-318 -316 c-29 -17 -55
-29 -58 -27 -5 5 86 58 101 58 6 0 -14 -14 -43 -31z m-227 -19 c-3 -5 -11 -10
-16 -10 -6 0 -7 5 -4 10 3 6 11 10 16 10 6 0 7 -4 4 -10z m5 -47 c-8 -3 -22
-11 -30 -17 -13 -10 -13 -9 -1 7 7 9 21 17 30 16 13 0 14 -1 1 -6z m40 -22
c-63 -33 -269 -111 -292 -110 -17 0 -13 4 17 16 22 9 51 24 65 33 43 29 104
55 125 52 11 -1 38 4 60 13 55 20 67 18 25 -4z m-755 -212 c-18 -5 -33 -5 -39
1 -7 7 4 10 30 9 39 -1 39 -1 9 -10z"/>
<path d="M4640 4669 c0 -5 5 -7 10 -4 6 3 10 8 10 11 0 2 -4 4 -10 4 -5 0 -10
-5 -10 -11z"/>
<path d="M2875 5146 c21 -17 108 -46 134 -45 9 0 -13 10 -49 23 -36 12 -74 26
-85 30 -20 8 -20 8 0 -8z"/>
<path d="M5176 5145 c-9 -26 -7 -32 5 -12 6 10 9 21 6 23 -2 3 -7 -2 -11 -11z"/>
<path d="M6275 5150 c-4 -6 -1 -18 7 -27 10 -13 10 -17 1 -20 -7 -3 -13 -8
-13 -13 0 -4 16 0 36 9 33 15 34 16 12 22 -13 3 -22 12 -22 22 2 19 -11 23
-21 7z"/>
<path d="M2445 5110 c11 -5 27 -9 35 -9 9 0 8 4 -5 9 -11 5 -27 9 -35 9 -9 0
-8 -4 5 -9z"/>
<path d="M3718 5103 c7 -3 16 -2 19 1 4 3 -2 6 -13 5 -11 0 -14 -3 -6 -6z"/>
<path d="M3678 5093 c7 -3 16 -2 19 1 4 3 -2 6 -13 5 -11 0 -14 -3 -6 -6z"/>
<path d="M3128 5083 c7 -3 16 -2 19 1 4 3 -2 6 -13 5 -11 0 -14 -3 -6 -6z"/>
<path d="M3171 5076 c2 -2 49 -6 104 -9 72 -4 85 -3 45 3 -58 8 -156 13 -149
6z"/>
<path d="M7220 5056 c0 -14 29 -30 38 -21 3 3 0 5 -6 5 -7 0 -12 7 -12 15 0 8
-4 15 -10 15 -5 0 -10 -6 -10 -14z"/>
<path d="M1687 5048 c-12 -9 -14 -17 -7 -28 8 -13 10 -13 10 2 0 23 37 33 58
16 15 -12 16 -11 3 5 -16 20 -41 22 -64 5z"/>
<path d="M6267 4913 c-15 -14 -6 -33 16 -33 16 0 18 3 8 9 -7 5 -10 14 -7 20
8 12 -6 15 -17 4z"/>
<path d="M6091 4864 c0 -11 3 -14 6 -6 3 7 2 16 -1 19 -3 4 -6 -2 -5 -13z"/>
<path d="M5284 4588 l-29 -33 33 29 c17 17 32 31 32 33 0 8 -8 1 -36 -29z"/>
<path d="M4221 4591 c-10 -6 -10 -10 -1 -16 13 -8 24 -1 19 14 -3 6 -10 7 -18
2z"/>
<path d="M3075 4550 c10 -11 20 -20 23 -20 3 0 -3 9 -13 20 -10 11 -20 20 -23
20 -3 0 3 -9 13 -20z"/>
<path d="M4210 4550 c-8 -5 -10 -10 -5 -10 6 0 17 5 25 10 8 5 11 10 5 10 -5
0 -17 -5 -25 -10z"/>
<path d="M3050 4395 c13 -14 26 -25 28 -25 3 0 -5 11 -18 25 -13 14 -26 25
-28 25 -3 0 5 -11 18 -25z"/>
<path d="M3109 4346 c13 -16 51 -41 51 -33 0 2 -15 14 -32 27 -21 15 -28 17
-19 6z"/>
<path d="M3190 4286 c0 -2 8 -10 18 -17 15 -13 16 -12 3 4 -13 16 -21 21 -21
13z"/>
<path d="M2959 4191 c-19 -15 -21 -21 -11 -34 26 -30 92 -25 92 8 0 13 -36 45
-51 45 -4 0 -17 -8 -30 -19z m59 -23 c3 -14 -3 -18 -27 -18 -29 0 -41 17 -24
34 13 13 48 1 51 -16z"/>
<path d="M5670 4039 c0 -5 5 -7 10 -4 6 3 10 8 10 11 0 2 -4 4 -10 4 -5 0 -10
-5 -10 -11z"/>
<path d="M2970 3911 c0 -10 19 -25 25 -20 1 2 -3 10 -11 17 -8 7 -14 8 -14 3z"/>
<path d="M2345 3729 c-125 -18 -344 -83 -370 -110 -5 -6 12 -1 39 11 27 11 55
19 62 18 7 -2 -25 -20 -72 -40 -46 -20 -84 -33 -84 -29 0 4 10 13 23 19 12 6
18 11 12 11 -5 1 -48 -24 -95 -54 -47 -30 -81 -55 -77 -55 4 0 18 7 31 15 13
9 28 15 32 14 10 -2 40 7 66 22 10 5 26 9 36 9 10 0 22 4 28 9 33 31 240 95
379 117 202 32 595 -5 652 -62 13 -13 26 -24 29 -24 9 0 131 -89 144 -105 16
-19 19 -83 5 -89 -5 -2 -1 -7 10 -12 11 -4 26 -14 33 -21 7 -7 21 -13 30 -13
9 0 31 -8 47 -18 38 -24 83 -33 88 -18 3 6 2 35 -1 64 -3 35 -1 52 7 52 6 0
11 -1 11 -2 0 -2 7 -21 14 -43 l14 -40 17 37 c15 31 16 38 4 52 -38 45 -130
116 -159 122 -14 2 -42 14 -62 24 -61 33 -68 22 -8 -11 64 -37 100 -67 100
-86 0 -7 7 -13 15 -13 23 0 35 -34 35 -95 0 -68 -17 -70 -40 -5 -14 41 -34 64
-115 134 -33 28 -39 34 -94 92 -25 27 -59 49 -96 63 -148 56 -506 87 -690 60z
m926 -339 c5 0 9 -4 9 -9 0 -4 -11 -6 -25 -3 -14 2 -25 9 -25 14 0 6 7 7 16 4
9 -3 20 -6 25 -6z"/>
<path d="M2390 3558 c-41 -17 -69 -33 -62 -36 8 -2 3 -12 -13 -24 -30 -23 -44
-19 -20 6 24 23 12 20 -46 -14 -198 -118 -341 -239 -511 -435 -36 -42 -128
-172 -128 -182 0 -3 -12 -19 -26 -36 -49 -58 -103 -204 -71 -191 11 4 17 -9
24 -53 l10 -58 2 48 c0 26 5 47 11 47 5 0 21 21 34 48 25 50 71 110 60 80 -12
-34 4 -18 38 40 19 32 38 69 41 83 12 44 94 136 196 218 100 81 112 96 89 103
-19 7 11 47 84 110 61 53 219 168 232 168 8 0 176 101 176 106 0 12 -54 -1
-120 -28z m-400 -297 c-5 -11 -14 -23 -20 -26 -19 -12 -131 -155 -121 -155 5
0 17 7 26 16 9 9 18 14 21 11 10 -10 -35 -47 -51 -41 -19 8 -51 -16 -35 -26 7
-5 -4 -24 -31 -56 -38 -44 -80 -106 -178 -258 -17 -27 -31 -58 -31 -68 0 -10
-4 -18 -10 -18 -13 0 -13 32 1 67 6 15 11 41 11 56 -1 30 13 52 67 105 38 38
164 203 158 208 -2 2 -30 -28 -62 -66 -32 -39 -60 -68 -63 -65 -8 7 58 83 186
215 109 112 158 149 132 101z"/>
<path d="M1824 3098 l-19 -23 23 19 c21 18 27 26 19 26 -2 0 -12 -10 -23 -22z"/>
<path d="M1746 3475 c-11 -8 -15 -15 -9 -15 6 0 16 7 23 15 16 19 11 19 -14 0z"/>
<path d="M3876 3461 c5 -5 26 -14 46 -20 20 -7 47 -23 60 -36 22 -23 25 -23
164 -18 90 4 147 2 159 -5 16 -8 8 -11 -40 -17 -84 -9 -157 -31 -189 -56 -14
-11 -33 -22 -40 -23 -7 -1 -51 -24 -97 -50 -146 -85 -250 -138 -257 -131 -4 3
4 15 18 25 l25 19 -25 9 c-35 14 -148 100 -166 128 -9 12 -14 31 -12 41 1 10
-1 23 -5 29 -4 7 -1 16 6 22 18 15 280 36 303 24 11 -5 40 -13 66 -16 53 -8
99 -38 83 -55 -5 -5 -34 -19 -63 -30 -72 -28 -162 -87 -162 -106 0 -10 13 -5
45 19 51 40 166 96 195 96 11 0 20 7 20 15 0 8 -4 15 -10 15 -5 0 -16 13 -25
29 -25 50 -106 74 -250 75 -144 1 -235 -10 -235 -29 0 -7 -19 -36 -42 -64
l-43 -51 -80 -1 c-44 -1 -93 -5 -110 -10 -20 -5 -1 -7 55 -4 56 3 78 1 65 -5
-11 -5 -35 -9 -53 -9 -61 -2 -228 -40 -301 -70 -130 -53 -361 -216 -361 -255
0 -7 -17 -32 -37 -57 -41 -48 -29 -41 60 34 62 53 81 58 45 12 -32 -41 -2 -21
71 47 160 150 360 242 526 243 105 0 182 -21 246 -67 l43 -31 -22 -18 c-27
-21 -255 -138 -291 -150 -17 -4 -20 -8 -8 -8 9 -1 85 32 169 73 130 64 154 73
174 64 13 -6 22 -13 19 -16 -2 -2 -46 -26 -97 -53 -117 -61 -105 -63 23 -4 84
40 100 44 125 35 34 -13 74 -5 74 15 0 8 -4 15 -10 15 -28 0 -2 24 62 56 39
20 107 58 151 86 44 28 86 47 94 44 8 -3 22 2 31 12 25 28 85 40 202 41 96 0
109 -2 145 -25 22 -14 31 -23 20 -20 -63 17 -137 26 -204 24 -44 -1 -59 -3
-35 -5 27 -3 84 -27 160 -69 125 -67 250 -121 260 -111 3 3 1 15 -6 27 -6 11
-8 29 -5 39 4 15 -9 29 -62 67 -37 26 -92 59 -121 73 -40 19 -52 30 -48 44 3
14 -15 23 -107 52 -62 19 -150 39 -197 45 -104 12 -207 13 -194 1z m-393 -113
c-48 -53 -47 -63 5 -104 26 -21 51 -41 55 -44 4 -4 -6 -5 -23 -2 -16 2 -30 10
-30 17 0 7 -18 28 -39 45 l-39 33 36 38 c19 22 40 39 45 39 6 0 1 -10 -10 -22z"/>
<path d="M1620 3358 c-64 -65 -171 -213 -196 -274 -8 -19 -13 -34 -11 -34 2 0
33 39 70 88 36 48 80 103 98 122 63 68 72 84 15 27 -32 -32 -61 -56 -64 -53
-6 6 70 97 123 148 22 20 37 38 34 38 -4 0 -35 -28 -69 -62z"/>
<path d="M3190 3330 c-10 -6 -2 -7 25 -3 49 7 58 13 19 13 -16 0 -36 -5 -44
-10z"/>
<path d="M4670 3290 c8 -5 20 -10 25 -10 6 0 3 5 -5 10 -8 5 -19 10 -25 10 -5
0 -3 -5 5 -10z"/>
<path d="M4797 3229 c7 -7 15 -10 18 -7 3 3 -2 9 -12 12 -14 6 -15 5 -6 -5z"/>
<path d="M4840 3210 c8 -5 20 -10 25 -10 6 0 3 5 -5 10 -8 5 -19 10 -25 10 -5
0 -3 -5 5 -10z"/>
<path d="M2851 3164 c-146 -79 -314 -214 -491 -394 -58 -58 -134 -131 -170
-160 -36 -30 -76 -68 -90 -85 l-24 -30 35 31 c19 17 45 41 59 53 14 13 38 30
55 38 16 9 37 25 46 37 10 11 57 55 106 96 48 41 115 105 147 143 77 89 220
201 334 259 34 18 62 36 62 40 0 10 5 12 -69 -28z"/>
<path d="M5039 3114 c34 -19 68 -33 74 -31 9 3 -115 67 -131 67 -4 0 22 -16
57 -36z"/>
<path d="M2625 3053 c-38 -31 -95 -80 -125 -108 -65 -60 -197 -183 -260 -241
-59 -54 -164 -166 -125 -133 82 69 240 215 335 310 59 58 139 131 178 163 63
51 79 67 70 66 -2 0 -34 -26 -73 -57z"/>
<path d="M5339 3079 c-40 -35 -116 -69 -154 -69 -22 0 -34 -4 -30 -10 11 -17
56 -11 111 15 79 37 151 49 181 30 29 -20 29 -37 -1 -72 l-24 -28 -194 -7
c-106 -5 -221 -6 -254 -2 -44 4 -64 2 -70 -7 -5 -8 -2 -11 8 -6 9 3 20 1 26
-5 7 -7 50 -7 142 2 74 7 164 10 209 6 65 -6 88 -4 136 13 84 30 131 92 105
140 -13 25 -30 28 -30 6 0 -13 -7 -15 -37 -9 -21 4 -39 11 -41 15 -7 17 -59 9
-83 -12z"/>
<path d="M5015 3060 c-22 -11 -49 -20 -62 -20 -12 0 -25 -5 -29 -12 -5 -8 8
-10 50 -5 31 3 70 1 88 -4 40 -11 49 -3 22 20 -11 9 -19 22 -16 29 5 17 -8 15
-53 -8z"/>
<path d="M5140 3070 c0 -5 4 -10 9 -10 6 0 13 5 16 10 3 6 -1 10 -9 10 -9 0
-16 -4 -16 -10z"/>
<path d="M2489 2963 c-13 -16 -12 -17 4 -4 9 7 17 15 17 17 0 8 -8 3 -21 -13z"/>
<path d="M3135 2933 c-54 -14 -107 -43 -78 -43 7 0 15 5 18 10 4 6 14 8 24 5
9 -3 39 6 67 19 57 29 52 30 -31 9z"/>
<path d="M3335 2930 c-3 -5 -1 -10 4 -10 6 0 11 5 11 10 0 6 -2 10 -4 10 -3 0
-8 -4 -11 -10z"/>
<path d="M3690 2905 c124 -18 260 -42 285 -50 17 -6 18 -5 4 4 -33 21 -186 52
-284 56 l-100 4 95 -14z"/>
<path d="M4825 2900 c-27 -10 -43 -19 -34 -19 20 -1 81 19 94 30 14 13 -3 10
-60 -11z"/>
<path d="M2399 2883 c-13 -16 -12 -17 4 -4 16 13 21 21 13 21 -2 0 -10 -8 -17
-17z"/>
<path d="M3089 2873 c-13 -16 -12 -17 4 -4 16 13 21 21 13 21 -2 0 -10 -8 -17
-17z"/>
<path d="M3170 2856 c-25 -12 -58 -30 -75 -39 -16 -9 -56 -20 -88 -23 -35 -4
-55 -10 -49 -16 5 -5 37 -2 78 7 38 8 76 16 84 16 39 2 77 22 93 49 22 36 16
37 -43 6z"/>
<path d="M3280 2870 c0 -23 45 -30 167 -27 l128 3 -131 2 c-107 2 -133 5 -138
17 -6 17 -26 21 -26 5z"/>
<path d="M2315 2812 c-22 -20 -72 -64 -110 -97 -39 -33 -102 -91 -140 -130
-87 -86 -219 -256 -206 -264 11 -7 -15 -41 -44 -57 -13 -7 -21 -23 -22 -48 -3
-47 -44 -139 -50 -112 -6 21 1 73 12 99 10 24 -12 22 -25 -2 -8 -16 -32 -182
-33 -231 0 -8 -6 -24 -13 -35 -8 -11 -14 -26 -14 -35 0 -8 12 3 25 25 14 22
22 47 19 57 -2 9 0 19 5 23 7 4 8 -1 5 -12 -4 -12 0 -10 15 7 11 14 24 47 27
73 8 56 24 45 24 -16 l0 -38 26 20 c15 12 30 21 33 21 4 0 4 -35 0 -77 -4 -43
-5 -80 -3 -81 1 -2 8 15 15 38 7 23 19 44 26 47 7 3 13 9 13 15 0 5 -5 6 -11
2 -7 -4 -10 -1 -7 7 3 8 14 19 26 25 32 16 62 45 62 60 0 7 9 18 21 24 11 6
18 17 16 23 -3 7 7 24 20 39 37 39 27 70 -41 126 -26 21 -19 32 22 33 30 2 32
3 10 6 -16 2 -28 8 -28 13 0 13 28 20 83 20 50 0 51 1 29 16 -20 14 -21 17 -7
37 28 41 17 53 -17 19 -28 -28 -31 -34 -18 -43 12 -8 10 -9 -7 -4 -12 3 -24 1
-28 -5 -4 -6 -13 -9 -21 -6 -8 3 -26 -8 -42 -25 -15 -17 -36 -36 -47 -41 -16
-9 -18 -8 -7 3 16 18 15 29 -4 29 -8 0 -12 5 -9 10 3 6 19 10 36 10 27 0 28 2
17 20 -15 24 -8 32 241 278 96 94 172 172 170 172 -2 0 -22 -17 -44 -38z
m-338 -518 c18 -14 33 -32 33 -41 0 -34 -58 -117 -114 -163 -17 -14 -18 -12
-12 25 8 53 -3 71 -34 55 -17 -9 -19 -14 -10 -20 10 -6 7 -19 -11 -56 l-24
-49 -7 50 c-4 28 -4 59 -1 70 7 20 9 28 12 43 1 4 6 0 11 -8 8 -12 10 -12 10
5 0 19 86 115 104 115 5 0 24 -11 43 -26z"/>
<path d="M3225 2840 c-3 -5 -1 -10 4 -10 6 0 11 5 11 10 0 6 -2 10 -4 10 -3 0
-8 -4 -11 -10z"/>
<path d="M4050 2801 c55 -50 134 -88 233 -112 40 -10 54 -9 91 5 46 18 80 46
56 46 -7 0 -33 -7 -59 -16 -62 -23 -123 -13 -192 31 -71 45 -124 73 -157 86
-21 8 -14 -2 28 -40z"/>
<path d="M3657 2833 c18 -2 50 -2 70 0 21 2 7 4 -32 4 -38 0 -55 -2 -38 -4z"/>
<path d="M4670 2830 c-9 -6 -10 -10 -3 -10 6 0 15 5 18 10 8 12 4 12 -15 0z"/>
<path d="M3935 2798 c26 -15 35 -28 35 -55 0 -12 10 -34 23 -48 18 -21 33 -27
82 -31 l60 -4 -59 14 c-62 14 -86 34 -86 72 0 22 -42 64 -64 64 -6 0 -2 -6 9
-12z"/>
<path d="M5650 2784 c0 -8 5 -12 10 -9 6 4 8 11 5 16 -9 14 -15 11 -15 -7z"/>
<path d="M2500 2770 c-8 -11 -19 -20 -26 -20 -6 0 -19 -9 -29 -20 -10 -11 -14
-20 -9 -20 5 0 -4 -11 -21 -25 -16 -13 -25 -24 -18 -25 20 0 96 64 116 98 20
35 10 44 -13 12z"/>
<path d="M2738 2756 c-86 -27 -93 -35 -27 -33 30 1 57 6 61 12 5 6 12 5 20 -3
6 -6 21 -12 32 -12 19 0 19 0 1 14 -11 8 -16 19 -12 30 8 19 9 19 -75 -8z"/>
<path d="M2847 2769 c-14 -8 -16 -14 -6 -25 14 -18 63 -17 109 2 l35 14 -54
-5 c-45 -5 -52 -3 -47 10 6 17 -11 19 -37 4z"/>
<path d="M2330 2693 c-23 -20 -46 -45 -51 -55 -18 -34 24 -4 65 46 45 56 40
59 -14 9z"/>
<path d="M1409 2656 c-50 -59 -89 -130 -129 -235 -22 -59 -45 -114 -51 -124
-12 -22 -49 -175 -49 -202 1 -32 34 41 49 110 30 132 40 163 72 225 18 36 35
67 38 70 32 27 71 87 85 130 9 29 16 53 14 55 -2 1 -15 -12 -29 -29z"/>
<path d="M2637 2683 c-24 -3 -35 -8 -31 -15 5 -7 -2 -9 -20 -4 -52 13 -326
-84 -351 -124 -5 -9 -4 -11 3 -6 8 5 12 -1 12 -15 0 -27 16 -15 22 15 2 16 13
21 45 23 22 1 56 11 75 22 27 16 248 85 333 104 24 6 -35 5 -88 0z"/>
<path d="M4215 2626 c94 -55 117 -61 173 -41 26 10 61 28 77 42 26 21 23 20
-29 -7 -32 -16 -64 -30 -71 -30 -7 0 -43 13 -81 28 -110 45 -139 49 -69 8z"/>
<path d="M1132 2532 c-40 -100 -65 -193 -96 -357 -28 -146 -60 -384 -53 -391
2 -3 8 21 11 53 25 210 75 453 122 588 26 76 54 178 50 183 -2 1 -17 -33 -34
-76z"/>
<path d="M1491 2574 c0 -11 3 -14 6 -6 3 7 2 16 -1 19 -3 4 -6 -2 -5 -13z"/>
<path d="M1276 2493 c-6 -14 -5 -15 5 -6 7 7 10 15 7 18 -3 3 -9 -2 -12 -12z"/>
<path d="M2198 2493 c-8 -10 -24 -40 -34 -68 -10 -27 -24 -56 -31 -63 -7 -7
-13 -21 -13 -30 0 -9 15 5 35 33 19 28 48 66 63 85 24 29 27 38 16 48 -17 15
-18 15 -36 -5z"/>
<path d="M2345 2480 c-3 -6 1 -7 9 -4 18 7 21 14 7 14 -6 0 -13 -4 -16 -10z"/>
<path d="M1726 2408 c-10 -15 -16 -35 -14 -45 3 -14 8 -11 22 15 22 42 16 66
-8 30z"/>
<path d="M2063 2353 c9 -2 25 -2 35 0 9 3 1 5 -18 5 -19 0 -27 -2 -17 -5z"/>
<path d="M2050 2306 c0 -2 9 -6 20 -9 11 -3 20 -1 20 4 0 5 -9 9 -20 9 -11 0
-20 -2 -20 -4z"/>
<path d="M1671 2250 c-6 -28 -11 -72 -11 -98 -1 -77 -19 -179 -45 -256 -28
-81 -31 -103 -10 -66 20 34 51 142 64 220 13 83 26 250 18 250 -3 0 -10 -23
-16 -50z"/>
<path d="M1587 2251 c-4 -17 -3 -21 5 -13 5 5 8 16 6 23 -3 8 -7 3 -11 -10z"/>
<path d="M753 2113 c9 -2 17 -12 17 -21 0 -12 3 -13 11 -5 16 16 2 33 -24 32
-17 -1 -18 -2 -4 -6z"/>
<path d="M665 2100 c3 -5 8 -10 11 -10 2 0 4 5 4 10 0 6 -5 10 -11 10 -5 0 -7
-4 -4 -10z"/>
<path d="M1170 2065 c-1 -35 -31 -180 -38 -184 -11 -7 -23 -93 -12 -86 23 14
75 239 61 263 -6 9 -11 13 -11 7z"/>
<path d="M1410 2026 c0 -13 7 -42 15 -65 15 -44 15 -43 15 -66 0 -8 4 -15 9
-15 15 0 21 29 12 53 -5 12 -15 43 -21 70 -13 50 -30 63 -30 23z"/>
<path d="M1788 1888 c-20 -46 -41 -103 -48 -128 -6 -25 -29 -78 -51 -117 -21
-40 -37 -73 -35 -73 8 0 116 178 141 233 23 48 46 167 34 167 -2 0 -21 -37
-41 -82z"/>
<path d="M1742 1885 c-48 -74 -56 -97 -13 -38 29 41 64 103 58 103 -2 0 -22
-29 -45 -65z"/>
<path d="M1686 1855 c-9 -26 -7 -32 5 -12 6 10 9 21 6 23 -2 3 -7 -2 -11 -11z"/>
<path d="M1720 1800 c-6 -11 -8 -20 -6 -20 3 0 10 9 16 20 6 11 8 20 6 20 -3
0 -10 -9 -16 -20z"/>
<path d="M765 1780 c-3 -6 1 -7 9 -4 18 7 21 14 7 14 -6 0 -13 -4 -16 -10z"/>
<path d="M1460 1749 c0 -17 3 -18 20 -9 11 6 20 12 20 14 0 2 -9 6 -20 9 -15
4 -20 0 -20 -14z"/>
<path d="M971 1744 c0 -11 3 -14 6 -6 3 7 2 16 -1 19 -3 4 -6 -2 -5 -13z"/>
<path d="M1603 1694 c-15 -20 -54 -68 -86 -105 -32 -38 -55 -69 -51 -69 21 0
-73 -100 -120 -127 -19 -11 -19 -12 -2 -13 38 0 118 72 174 159 31 48 58 88
61 91 17 15 63 91 58 96 -3 3 -18 -11 -34 -32z"/>
<path d="M1393 1623 c-35 -89 -54 -175 -32 -138 7 11 15 22 18 25 3 3 12 17
20 32 8 15 22 30 33 34 20 6 24 19 8 29 -5 3 -10 11 -10 17 0 7 6 6 15 -2 12
-10 15 -10 15 3 0 8 -6 20 -14 27 -8 6 -16 21 -18 33 -2 15 -14 -5 -35 -60z"/>
<path d="M1015 1579 c-4 -6 -9 -47 -12 -92 -5 -105 12 -84 22 26 7 73 4 90
-10 66z"/>
<path d="M1567 1533 c-4 -3 -7 -11 -7 -17 0 -6 5 -5 12 2 6 6 9 14 7 17 -3 3
-9 2 -12 -2z"/>
<path d="M1423 1493 c-13 -14 -23 -30 -23 -35 0 -9 26 14 49 45 21 27 -1 19
-26 -10z"/>
<path d="M1140 1481 c0 -12 -7 -35 -15 -51 -15 -29 -12 -80 5 -80 8 0 23 140
15 148 -3 3 -5 -5 -5 -17z"/>
<path d="M1355 1433 c-19 -10 -25 -18 -16 -21 7 -2 23 5 34 17 25 25 22 26
-18 4z"/>
<path d="M1242 1344 c-46 -62 -93 -144 -82 -144 5 0 11 8 15 19 3 10 16 30 29
44 23 24 79 118 74 122 -2 2 -18 -17 -36 -41z"/>
<path d="M1351 1310 c-62 -62 -70 -84 -41 -115 18 -20 22 -32 17 -62 -9 -59
10 -16 28 62 9 37 24 89 35 116 10 27 16 49 15 49 -2 0 -26 -22 -54 -50z"/>
<path d="M1035 1305 c-27 -62 -31 -69 -42 -72 -6 -2 -17 13 -23 33 l-13 37
-12 -39 c-7 -21 -24 -79 -38 -129 -14 -49 -28 -99 -32 -110 -5 -14 2 -10 22
13 35 39 50 40 63 7 5 -14 17 -25 25 -25 9 0 13 -5 10 -10 -3 -6 -17 -7 -31
-4 -19 5 -23 3 -19 -8 4 -10 -4 -19 -25 -28 -29 -12 -124 -107 -157 -156 -8
-13 -20 -24 -27 -24 -6 0 -19 -12 -29 -28 -9 -15 -32 -47 -49 -72 -29 -39 -33
-52 -32 -105 2 -123 59 -270 126 -326 88 -73 159 -82 245 -33 83 48 122 123
130 247 5 84 4 90 -10 72 -8 -11 -18 -17 -22 -13 -4 4 2 19 14 34 11 15 21 36
21 47 0 18 -2 19 -17 5 -20 -17 -63 -30 -63 -20 0 4 13 16 29 26 29 20 67 83
56 94 -3 3 -5 1 -5 -5 0 -16 -49 -22 -52 -7 -2 9 -20 -3 -48 -31 -25 -24 -48
-44 -52 -45 -16 0 -7 32 16 63 19 26 25 49 30 117 4 47 9 102 10 123 2 20 2
37 0 37 -2 0 -17 -27 -34 -60 -17 -33 -27 -60 -23 -60 5 0 8 -29 9 -65 0 -36
-1 -65 -4 -65 -3 0 -11 8 -18 18 -13 16 -14 16 -8 0 7 -20 -20 -26 -31 -8 -8
12 -25 13 -25 1 0 -5 9 -11 20 -14 34 -9 22 -35 -36 -80 -31 -23 -73 -56 -93
-73 -108 -92 -127 -97 -57 -15 24 30 26 36 12 41 -12 4 1 26 65 100 90 105
119 146 169 235 18 33 46 77 63 98 16 21 27 41 23 44 -3 3 -1 12 4 18 23 27
60 156 58 202 -1 37 -2 40 -5 16 -5 -36 -23 -46 -23 -12 0 12 -5 19 -12 16 -7
-2 -18 5 -25 17 -11 19 -12 18 -28 -19z m-126 -414 c-35 -39 -68 -71 -74 -71
-7 0 -27 -19 -46 -42 l-33 -42 34 21 c19 11 45 24 57 28 l23 6 -23 -35 c-24
-38 -55 -60 -37 -26 12 23 13 30 1 30 -5 0 -12 -12 -16 -27 -8 -32 -42 -83
-56 -83 -6 0 -7 9 -3 22 6 20 5 21 -10 9 -56 -46 7 80 71 142 61 61 166 147
171 142 2 -2 -24 -36 -59 -74z m10 -41 c-12 -22 -25 -38 -27 -35 -5 4 37 75
44 75 3 0 -5 -18 -17 -40z"/>
<path d="M1305 1330 c3 -5 8 -10 11 -10 2 0 4 5 4 10 0 6 -5 10 -11 10 -5 0
-7 -4 -4 -10z"/>
<path d="M1247 1191 c-4 -18 14 -51 29 -51 9 0 3 37 -9 55 -13 17 -14 17 -20
-4z"/>
<path d="M1162 1107 c-22 -24 -20 -46 2 -24 12 12 28 47 22 47 -1 0 -12 -10
-24 -23z"/>
<path d="M1240 1081 c0 -12 5 -21 10 -21 6 0 10 6 10 14 0 8 -4 18 -10 21 -5
3 -10 -3 -10 -14z"/>
<path d="M1216 1024 c-9 -23 -7 -36 3 -30 12 8 21 46 11 46 -4 0 -11 -7 -14
-16z"/>
<path d="M804 955 c-7 -19 -21 -52 -29 -72 l-15 -38 23 30 c12 16 22 34 23 40
0 5 4 19 8 30 21 56 13 64 -10 10z"/>
<path d="M1196 965 c-3 -9 -6 -22 -5 -28 0 -7 5 -1 10 12 5 13 8 26 5 28 -2 2
-6 -3 -10 -12z"/>
<path d="M686 813 c-76 -20 -154 -119 -162 -206 -4 -52 -4 -52 8 -17 18 49 60
120 71 120 5 0 6 -7 3 -16 -8 -21 -18 -103 -10 -84 45 110 86 174 128 197 20
12 20 12 1 11 -11 0 -29 -3 -39 -5z m-16 -38 c0 -8 -55 -55 -64 -55 -5 0 3 14
19 30 26 27 45 38 45 25z"/>
<path d="M946 805 c-9 -26 -7 -32 5 -12 6 10 9 21 6 23 -2 3 -7 -2 -11 -11z"/>
<path d="M0 740 c0 -13 100 -13 120 0 11 7 -5 10 -52 10 -39 0 -68 -4 -68 -10z"/>
<path d="M471 715 c-28 -49 -49 -126 -56 -215 -8 -89 6 -157 40 -208 30 -44
31 -39 5 21 -55 124 -27 320 58 410 l26 27 -26 0 c-19 0 -32 -9 -47 -35z"/>
<path d="M247 710 c-32 -15 -57 -30 -55 -31 1 -2 -16 -29 -38 -59 -48 -64 -88
-155 -81 -181 3 -11 2 -21 -3 -24 -27 -17 -13 -205 15 -205 10 0 11 9 4 38
-11 48 -11 149 0 156 5 3 10 -32 13 -77 3 -67 10 -95 36 -147 35 -73 77 -128
89 -117 4 5 2 11 -4 15 -27 17 -75 135 -80 195 -5 72 9 61 26 -21 14 -69 40
-117 90 -172 l42 -45 -35 53 c-19 29 -47 78 -63 110 -26 52 -28 66 -28 172 0
106 2 120 29 174 30 63 102 147 151 177 l30 19 -40 -1 c-22 0 -66 -13 -98 -29z"/>
<path d="M410 693 c-42 -38 -61 -66 -75 -113 l-8 -25 21 25 c15 17 21 20 22
10 0 -8 7 -2 15 14 8 15 12 33 8 39 -3 5 -2 8 3 5 5 -3 21 14 36 38 15 24 26
44 23 44 -2 0 -22 -17 -45 -37z"/>
<path d="M112 626 c-87 -96 -118 -191 -109 -341 5 -97 22 -149 79 -235 18 -28
39 -50 47 -50 10 0 4 11 -16 33 -42 43 -82 142 -93 231 -16 128 20 239 121
366 53 67 34 64 -29 -4z"/>
<path d="M582 570 c0 -14 2 -19 5 -12 2 6 2 18 0 25 -3 6 -5 1 -5 -13z"/>
<path d="M582 480 c0 -14 2 -19 5 -12 2 6 2 18 0 25 -3 6 -5 1 -5 -13z"/>
<path d="M90 184 c0 -22 54 -115 80 -139 28 -25 25 -9 -6 32 -14 18 -34 54
-45 78 -21 48 -29 55 -29 29z"/>
<path d="M210 10 c0 -5 5 -10 11 -10 5 0 7 5 4 10 -3 6 -8 10 -11 10 -2 0 -4
-4 -4 -10z"/>
</g>
</svg>
